<svg width="34" height="42" viewBox="0 0 34 42" fill="none" xmlns="http://www.w3.org/2000/svg">
<path fill-rule="evenodd" clip-rule="evenodd" d="M15.1292 33.7046C15.2814 33.7046 15.4335 33.6546 15.5616 33.5527L16.7791 32.5931C16.9665 32.4448 17.1762 32.3411 17.4026 32.2822C17.6253 32.225 17.861 32.2143 18.1023 32.2518L19.6557 32.4966C19.8116 32.5216 19.9619 32.4966 20.0881 32.4323L20.1104 32.4198C20.2421 32.3465 20.3498 32.2286 20.4073 32.0802L20.9641 30.6632C21.0513 30.4416 21.1775 30.2504 21.3408 30.0931L21.3427 30.0949C21.5079 29.9359 21.7064 29.8143 21.9329 29.7303L23.4046 29.1942C23.5512 29.1406 23.6681 29.0477 23.7442 28.9333L23.7591 28.9083C23.8352 28.7815 23.8648 28.6296 23.8389 28.4705L23.5846 26.9748C23.5456 26.7425 23.5549 26.5156 23.6162 26.3011C23.6774 26.0831 23.785 25.883 23.9391 25.7007L24.9357 24.5284C25.0415 24.4051 25.0935 24.2568 25.0935 24.1121C25.0935 23.9655 25.0415 23.819 24.9357 23.6957L23.9391 22.5234C23.785 22.343 23.6774 22.141 23.6162 21.923C23.5568 21.7086 23.5456 21.4816 23.5846 21.2493L23.8389 19.7536C23.8667 19.5946 23.8351 19.4427 23.7591 19.3158H23.7609L23.7591 19.314C23.6848 19.1889 23.5623 19.0871 23.4064 19.0299L21.9347 18.4938C21.7046 18.4098 21.506 18.2883 21.3427 18.131C21.1794 17.9738 21.0532 17.7826 20.9659 17.561L20.4092 16.1439C20.3535 16.0027 20.257 15.8901 20.1382 15.8169C20.1289 15.8115 20.1215 15.8079 20.1122 15.8026C19.9805 15.7293 19.8227 15.7007 19.6575 15.7257L18.1042 15.9706C17.8629 16.0081 17.6272 15.9991 17.4045 15.9402C17.1781 15.8812 16.9702 15.7776 16.7809 15.6292L15.5635 14.6696C15.4354 14.5678 15.2814 14.5177 15.131 14.5177C14.9789 14.5177 14.8267 14.5678 14.6986 14.6696L13.4812 15.6292C13.2937 15.7776 13.084 15.8812 12.8576 15.9402C12.6349 15.9974 12.3992 16.0081 12.1579 15.9706L10.6045 15.7257C10.4394 15.6989 10.2816 15.7293 10.1499 15.8026V15.8008L10.148 15.8026C10.0181 15.8741 9.91231 15.992 9.85292 16.1421L9.29615 17.5592C9.20892 17.7808 9.08272 17.972 8.9194 18.1292L8.91755 18.1275C8.75237 18.2865 8.55379 18.408 8.32737 18.492L6.85564 19.0281C6.70903 19.0817 6.5921 19.1746 6.51602 19.289C6.51045 19.2979 6.50674 19.3051 6.50117 19.314C6.42508 19.4409 6.39538 19.5928 6.42137 19.7518L6.67562 21.2475C6.7146 21.4798 6.70532 21.7068 6.64407 21.9212C6.58283 22.1392 6.47519 22.3394 6.32115 22.5217L5.32452 23.6939C5.21874 23.8172 5.16677 23.9655 5.16677 24.1103C5.16677 24.2568 5.21874 24.4033 5.32452 24.5267L6.32115 25.6989C6.47519 25.8794 6.58283 26.0813 6.64407 26.2993C6.70346 26.5138 6.7146 26.7407 6.67562 26.973L6.42137 28.4687C6.39538 28.6188 6.42137 28.7636 6.48818 28.8851L6.50117 28.9065C6.57726 29.0334 6.69975 29.1371 6.85379 29.1925L8.32552 29.7286C8.53337 29.8036 8.71711 29.9126 8.87298 30.052C8.88783 30.0645 8.90453 30.077 8.91752 30.0913C9.08084 30.2486 9.20704 30.4398 9.29426 30.6614L9.85104 32.0785C9.90857 32.2286 10.0162 32.3465 10.148 32.418V32.4198C10.2779 32.4913 10.4375 32.5216 10.6027 32.4948L12.156 32.25C12.3973 32.2125 12.633 32.2214 12.8557 32.2804C13.0821 32.3394 13.29 32.443 13.4793 32.5913L14.6967 33.551C14.8248 33.6528 14.9788 33.7029 15.1292 33.7029L15.1292 33.7046ZM15.1292 17.5949C16.9999 17.5949 18.6925 18.3241 19.9173 19.5052C21.1422 20.6846 21.9012 22.3161 21.9012 24.1156C21.9012 25.915 21.144 27.5466 19.9173 28.7259C18.6924 29.9053 16.998 30.6362 15.1292 30.6362C13.2604 30.6362 11.5659 29.9071 10.3411 28.7259C9.11621 27.5465 8.35714 25.915 8.35714 24.1156C8.35714 22.3161 9.11436 20.6846 10.3411 19.5052C11.5659 18.3258 13.2604 17.5949 15.1292 17.5949ZM19.0005 20.3862C19.9915 21.3405 20.604 22.6593 20.604 24.1138C20.604 25.5702 19.9915 26.8872 19.0005 27.8415C18.0095 28.7957 16.6398 29.3854 15.1292 29.3854C13.6166 29.3854 12.2489 28.7957 11.2578 27.8415C10.2668 26.8872 9.65436 25.5684 9.65436 24.1138C9.65436 22.6575 10.2668 21.3405 11.2578 20.3862C12.2489 19.432 13.6185 18.8423 15.1292 18.8423C16.6417 18.8423 18.0095 19.432 19.0005 20.3862ZM4.85524 35.1715V36.4689C4.85524 36.7119 4.95917 36.9317 5.12434 37.0925C5.29137 37.2534 5.51964 37.3517 5.77205 37.3517H8.76188V35.1715L4.85524 35.1715ZM10.0534 39.5282V33.7046C10.2965 33.7565 10.5526 33.7672 10.8124 33.7261L12.3658 33.4813C12.4215 33.4723 12.4753 33.4741 12.5235 33.4866C12.5681 33.4991 12.6145 33.5224 12.6609 33.5581L13.8783 34.5177C14.0639 34.6643 14.2681 34.7733 14.4833 34.8465V38.0541L10.6509 39.8822C10.5823 39.9144 10.5117 39.9305 10.4468 39.9269C10.3818 39.9233 10.3132 39.9019 10.2482 39.8644C10.1851 39.8268 10.135 39.7786 10.1034 39.7232C10.0738 39.6714 10.0571 39.6053 10.0571 39.5284L10.0534 39.5282ZM8.76164 38.599H5.77181C5.1631 38.599 4.60818 38.3595 4.20914 37.9735C3.80827 37.5875 3.55958 37.055 3.55958 36.4689V35.1715H2.21223C1.60353 35.1715 1.0486 34.9321 0.649563 34.5461C0.248693 34.1601 0 33.6276 0 33.0414V8.29707C0 8.20951 0.0185592 8.12373 0.05382 8.04868C0.079802 7.9915 0.115066 7.93789 0.155891 7.89143C0.167027 7.87892 0.180018 7.86641 0.191153 7.8539L8.15485 0.185846C8.27177 0.0714792 8.43509 0 8.61697 0H28.0464C28.6551 0 29.21 0.239456 29.609 0.625448C30.0099 1.01144 30.2586 1.54395 30.2586 2.1301V3.42743H31.6059C32.2147 3.42743 32.7696 3.66689 33.1686 4.05288C33.5695 4.43887 33.8182 4.97138 33.8182 5.55753V36.4667C33.8182 37.0528 33.5695 37.5872 33.1686 37.9714C32.7677 38.3574 32.2147 38.5968 31.6059 38.5968H21.4991V39.526C21.4991 39.8119 21.4248 40.0836 21.2856 40.3248C21.1483 40.5643 20.946 40.7662 20.6899 40.9199C20.4356 41.0718 20.1573 41.1558 19.8733 41.1683C19.5893 41.1808 19.3054 41.1236 19.0363 40.9967L15.1278 39.1311L11.2193 40.9967C10.9521 41.1236 10.6681 41.1808 10.3823 41.1683C10.0984 41.1558 9.82183 41.0718 9.5657 40.9199C9.30959 40.7662 9.10915 40.5643 8.96996 40.3248C8.83077 40.0836 8.75654 39.8119 8.75654 39.526H8.75839V38.5968L8.76164 38.599ZM21.4987 37.3516V35.1715H28.0461C28.6548 35.1715 29.2098 34.9321 29.6088 34.5461C30.0097 34.1601 30.2584 33.6276 30.2584 33.0414V4.67668H31.6057C31.8581 4.67668 32.0864 4.77675 32.2534 4.93579C32.4204 5.09662 32.5225 5.31642 32.5225 5.55946V36.4686C32.5225 36.7117 32.4186 36.9315 32.2534 37.0923C32.0864 37.2531 31.8581 37.3514 31.6057 37.3514L21.4987 37.3516ZM21.4987 33.9242V32.7663C21.5433 32.6876 21.5822 32.6054 21.6156 32.5197L22.1724 31.1026C22.191 31.0525 22.2207 31.0097 22.2559 30.9757L22.2541 30.9739L22.2559 30.9721C22.2893 30.94 22.332 30.9149 22.3877 30.8953L23.8594 30.3592C24.2844 30.2037 24.6259 29.9232 24.8504 29.5729C24.8597 29.5604 24.869 29.5461 24.8764 29.5318C25.0991 29.1619 25.1901 28.7205 25.1121 28.2702L24.8579 26.7745C24.8486 26.7209 24.8504 26.6691 24.8634 26.6226C24.8764 26.5779 24.9005 26.535 24.9377 26.4904L25.9343 25.3181C26.2349 24.9643 26.3853 24.539 26.3853 24.1119C26.3853 23.6848 26.2349 23.2595 25.9343 22.9057L24.9377 21.7335C24.9005 21.6888 24.8746 21.6459 24.8634 21.6012C24.8504 21.5548 24.8486 21.5047 24.8579 21.4493L25.1121 19.9536C25.1882 19.5033 25.0973 19.0619 24.8764 18.692H24.8746C24.6519 18.3221 24.3011 18.0255 23.8594 17.8647L22.3877 17.3286C22.3357 17.3107 22.2912 17.2821 22.2559 17.2481C22.2207 17.2142 22.1928 17.1713 22.1724 17.1213L21.6156 15.7042C21.4542 15.295 21.1628 14.9661 20.799 14.7499C20.786 14.741 20.7712 14.7321 20.7563 14.7249C20.3722 14.5105 19.9138 14.4229 19.4461 14.498L17.8927 14.7428C17.8371 14.7517 17.7832 14.75 17.735 14.7374C17.6904 14.7249 17.644 14.7017 17.5977 14.666L16.3802 13.7063C16.0127 13.4168 15.571 13.2721 15.1275 13.2721C14.6839 13.2721 14.2422 13.4168 13.8748 13.7063L12.6573 14.666C12.6109 14.7017 12.5664 14.7267 12.52 14.7374C12.4717 14.75 12.4198 14.7517 12.3622 14.7428L10.8089 14.498C10.3412 14.4247 9.88282 14.5123 9.49865 14.7249V14.7267C9.11448 14.9412 8.80642 15.2789 8.63937 15.7042L8.0826 17.1213C8.06404 17.1713 8.03434 17.2142 7.99908 17.2482L8.00094 17.2499L7.99908 17.2517C7.96568 17.2839 7.92299 17.3089 7.86732 17.3286L6.39559 17.8647C5.97059 18.0201 5.6291 18.3007 5.40456 18.651C5.39529 18.6635 5.38601 18.6778 5.37858 18.6921C5.15588 19.062 5.06494 19.5033 5.14289 19.9537L5.39715 21.4494C5.40642 21.503 5.40457 21.5548 5.39158 21.6012C5.37859 21.6441 5.35446 21.6888 5.31734 21.7335L4.32072 22.9057C4.02006 23.2596 3.86974 23.6849 3.86974 24.1119C3.86974 24.539 4.02006 24.9643 4.32072 25.3181L5.31734 26.4904C5.35446 26.5351 5.38044 26.578 5.39158 26.6226C5.40457 26.6691 5.40642 26.7191 5.39715 26.7745L5.14289 28.2702C5.06865 28.7027 5.15217 29.128 5.35632 29.489C5.36374 29.5033 5.37116 29.5175 5.38044 29.5318C5.60129 29.9017 5.95389 30.1966 6.39745 30.3592L7.86918 30.8953C7.91372 30.9114 7.95269 30.9328 7.98239 30.9579L7.99909 30.9757C8.03435 31.0097 8.06219 31.0526 8.08261 31.1026L8.63938 32.5197C8.67279 32.6073 8.71362 32.6913 8.76002 32.7699V33.9243H2.2107C1.9583 33.9243 1.73003 33.8242 1.56299 33.6651C1.39596 33.5043 1.29388 33.2845 1.29388 33.0415L1.29574 8.92063H7.05068C7.65939 8.92063 8.21431 8.68118 8.61335 8.29518C9.01422 7.9092 9.26291 7.37668 9.26291 6.79053L9.26477 1.24924H28.0461C28.2985 1.24924 28.5268 1.34931 28.6938 1.50835C28.8609 1.66918 28.9629 1.88898 28.9629 2.13202V33.0412C28.9629 33.2842 28.859 33.504 28.6938 33.6649C28.5268 33.8257 28.2985 33.924 28.0461 33.924L21.4987 33.9242ZM2.21232 7.67341H7.05269C7.30509 7.67341 7.53335 7.57334 7.7004 7.41429C7.86558 7.25347 7.9695 7.03367 7.9695 6.79063V2.12996L2.21232 7.67341ZM17.5995 21.8425C17.8519 21.5995 18.2621 21.5995 18.5163 21.8425C18.7687 22.0856 18.7687 22.4805 18.5163 22.7253L14.7118 26.3886C14.4594 26.6316 14.0493 26.6316 13.795 26.3886L11.7424 24.4122C11.49 24.1692 11.49 23.7743 11.7424 23.5294C11.9948 23.2864 12.4049 23.2864 12.6592 23.5294L14.2534 25.0645L17.5995 21.8425ZM15.7771 34.8465C15.9924 34.775 16.1965 34.6642 16.3821 34.5177L17.5995 33.558C17.6459 33.5223 17.6905 33.4973 17.7369 33.4866C17.7851 33.474 17.8371 33.4723 17.8946 33.4812L19.448 33.726C19.7059 33.7671 19.962 33.7582 20.2033 33.7046V39.5267C20.2033 39.6018 20.1866 39.6697 20.1569 39.7215C20.1253 39.7769 20.0752 39.8252 20.0121 39.8627C19.9472 39.902 19.8804 39.9235 19.8136 39.9252C19.7486 39.9288 19.6799 39.9127 19.6094 39.8806L15.777 38.0525V34.8449L15.7771 34.8465Z" fill="black"/>
</svg>
